/home/minht/3dpredictsim_tutorial/predsim_tutorial/Results/Case_10/GRF.mot
version=1
nRows=30
nColumns=19
inDegrees=yes
endheader 
time	r_ground_force_vx	r_ground_force_vy	r_ground_force_vz	r_ground_force_px	r_ground_force_py	r_ground_force_pz	l_ground_force_vx	l_ground_force_vy	l_ground_force_vz	l_ground_force_px	l_ground_force_py	l_ground_force_pz	r_ground_torque_x	r_ground_torque_y	r_ground_torque_z	l_ground_torque_x	l_ground_torque_y	l_ground_torque_z	
          0.00000000	        -50.06581054	         39.06926813	          9.60496069	          0.10651988	          0.00000000	          0.07939376	         34.56136433	        825.04339749	          9.20261076	         -0.20491074	          0.00000000	         -0.09530626	          0.00000000	         -0.05979870	          0.00000000	          0.00000000	        -13.64426611	          0.00000000	
          0.03031555	         30.16350777	        380.03339777	         72.67355921	          0.07700909	          0.00000000	          0.05572292	         21.45272262	        700.59246279	        -11.55644200	         -0.19891778	          0.00000000	         -0.09442295	          0.00000000	          5.62061359	          0.00000000	          0.00000000	        -12.37831133	          0.00000000	
          0.06063110	         -9.14872059	        729.73365305	         47.43760970	          0.05867118	          0.00000000	          0.05062483	        -12.08270340	        470.47228118	        -36.40685175	         -0.18078758	          0.00000000	         -0.09419765	          0.00000000	          1.25561384	          0.00000000	          0.00000000	         -8.86663713	          0.00000000	
          0.09094665	         -8.08046973	        809.48508970	         39.37194099	          0.06346426	          0.00000000	          0.04892283	        -41.73212006	        292.04276048	        -46.82856695	         -0.14786515	          0.00000000	         -0.09553725	          0.00000000	         -1.76262886	          0.00000000	          0.00000000	         -4.32547363	          0.00000000	
          0.12126219	         -6.65097634	        820.81361232	         32.02443382	          0.07375018	          0.00000000	          0.04834707	        -34.89132721	        197.04846548	        -55.24492155	         -0.10840189	          0.00000000	         -0.09988896	          0.00000000	         -3.74583216	          0.00000000	          0.00000000	         -0.98181300	          0.00000000	
          0.15157774	         -5.51153204	        837.03619221	         23.97722444	          0.08210465	          0.00000000	          0.04853723	        -19.43470934	        161.81235060	        -67.81299172	         -0.08834814	          0.00000000	         -0.10372200	          0.00000000	         -4.27976786	          0.00000000	          0.00000000	         -0.12167372	          0.00000000	
          0.18189329	         -1.90328571	        857.35533931	         17.11923819	          0.08780520	          0.00000000	          0.04928127	        -15.17914635	        120.21000706	        -67.06985058	         -0.06510552	          0.00000000	         -0.11086540	          0.00000000	         -3.54716514	          0.00000000	          0.00000000	          0.27574767	          0.00000000	
          0.21220884	          0.21925477	        886.49583652	         11.51653525	          0.09025979	          0.00000000	          0.05037583	        -14.86917801	         79.07997825	        -62.05971427	         -0.04555035	          0.00000000	         -0.11626487	          0.00000000	         -2.16891621	          0.00000000	          0.00000000	          0.00057325	          0.00000000	
          0.24252439	         12.73055999	        909.33964192	          6.91982399	          0.09086030	          0.00000000	          0.05167825	        -20.79279036	         39.67120266	        -29.41839283	         -0.04125660	          0.00000000	         -0.11167361	          0.00000000	         -0.90056560	          0.00000000	          0.00000000	          0.00098171	          0.00000000	
          0.27283994	         24.52341924	        911.12806338	          1.87085065	          0.09264945	          0.00000000	          0.05303276	          0.00000000	          0.00000000	          0.00000000	          0.00000000	          0.00000000	          0.00000000	          0.00000000	         -0.00484416	          0.00000000	          0.00000000	          0.00000000	          0.00000000	
          0.30315548	         30.32394849	        895.05745074	         -2.97684695	          0.09553978	          0.00000000	          0.05440905	          0.00000000	          0.00000000	          0.00000000	          0.00000000	          0.00000000	          0.00000000	          0.00000000	          0.67772302	          0.00000000	          0.00000000	          0.00000000	          0.00000000	
          0.33347103	         35.65556190	        881.75814397	         -9.13818283	          0.09813497	          0.00000000	          0.05584099	          0.00000000	          0.00000000	          0.00000000	          0.00000000	          0.00000000	          0.00000000	          0.00000000	          1.35767889	          0.00000000	          0.00000000	          0.00000000	          0.00000000	
          0.36378658	         41.70388590	        875.49873780	        -14.56807766	          0.10008868	          0.00000000	          0.05720780	          0.00000000	          0.00000000	          0.00000000	          0.00000000	          0.00000000	          0.00000000	          0.00000000	          2.00841135	          0.00000000	          0.00000000	          0.00000000	          0.00000000	
          0.39410213	         49.00097019	        871.95940431	        -18.55964178	          0.10178905	          0.00000000	          0.05851783	          0.00000000	          0.00000000	          0.00000000	          0.00000000	          0.00000000	          0.00000000	          0.00000000	          2.61066048	          0.00000000	          0.00000000	          0.00000000	          0.00000000	
          0.42441768	         54.90362330	        866.38700076	        -21.55771964	          0.10364907	          0.00000000	          0.05983763	          0.00000000	          0.00000000	          0.00000000	          0.00000000	          0.00000000	          0.00000000	          0.00000000	          3.17187560	          0.00000000	          0.00000000	          0.00000000	          0.00000000	
          0.45473323	         59.16855230	        860.87865782	        -23.50602236	          0.10557047	          0.00000000	          0.06119350	          0.00000000	          0.00000000	          0.00000000	          0.00000000	          0.00000000	          0.00000000	          0.00000000	          3.74141480	          0.00000000	          0.00000000	          0.00000000	          0.00000000	
          0.48504878	         63.73616461	        859.44097367	        -24.40657929	          0.10714002	          0.00000000	          0.06260790	          0.00000000	          0.00000000	          0.00000000	          0.00000000	          0.00000000	          0.00000000	          0.00000000	          4.26175685	          0.00000000	          0.00000000	          0.00000000	          0.00000000	
          0.51536432	         70.94094793	        866.14732928	        -25.08190370	          0.10805471	          0.00000000	          0.06414757	          0.00000000	          0.00000000	          0.00000000	          0.00000000	          0.00000000	          0.00000000	          0.00000000	          4.66962537	          0.00000000	          0.00000000	          0.00000000	          0.00000000	
          0.54567987	         82.15845523	        880.39525647	        -26.45294428	          0.10861817	          0.00000000	          0.06580735	          0.00000000	          0.00000000	          0.00000000	          0.00000000	          0.00000000	          0.00000000	          0.00000000	          5.00958038	          0.00000000	          0.00000000	          0.00000000	          0.00000000	
          0.57599542	         97.56583078	        901.10496355	        -28.47205131	          0.10960344	          0.00000000	          0.06744286	          0.00000000	          0.00000000	          0.00000000	          0.00000000	          0.00000000	          0.00000000	          0.00000000	          5.39253044	          0.00000000	          0.00000000	          0.00000000	          0.00000000	
          0.60631097	        117.11278373	        922.31428075	        -30.82619689	          0.11171713	          0.00000000	          0.06882309	          0.00000000	          0.00000000	          0.00000000	          0.00000000	          0.00000000	          0.00000000	          0.00000000	          5.78340244	          0.00000000	          0.00000000	          0.00000000	          0.00000000	
          0.63662652	        134.63547397	        923.67423066	        -32.42038320	          0.11534773	          0.00000000	          0.06976683	          0.00000000	          0.00000000	          0.00000000	          0.00000000	          0.00000000	          0.00000000	          0.00000000	          6.13521146	          0.00000000	          0.00000000	          0.00000000	          0.00000000	
          0.66694207	        147.70860700	        892.14432307	        -32.33946157	          0.12051157	          0.00000000	          0.07006327	        -78.37010896	         56.98516565	        -26.32690335	          0.66906935	          0.00000000	         -0.10188184	          0.00000000	          6.18922311	          0.00000000	          0.00000000	          0.00020619	          0.00000000	
          0.69725761	        142.30318251	        820.41986533	        -18.40946683	          0.12686490	          0.00000000	          0.07000242	        -92.63461062	        203.55205641	        -64.05567964	          0.69491003	          0.00000000	         -0.09340920	          0.00000000	          6.06254498	          0.00000000	          0.00000000	          0.04308772	          0.00000000	
          0.72757316	        113.11402851	        706.76912329	         -2.81646892	          0.13533500	          0.00000000	          0.07055908	       -158.75780166	        670.22253061	        -16.08659949	          0.73540196	          0.00000000	         -0.08350244	          0.00000000	          4.02200802	          0.00000000	          0.00000000	         -6.71899657	          0.00000000	
          0.75788871	         73.32303775	        553.23821906	          8.23893473	          0.14817629	          0.00000000	          0.07245119	       -194.89495752	        761.57597162	        -16.41332768	          0.74522849	          0.00000000	         -0.08363335	          0.00000000	          2.61563586	          0.00000000	          0.00000000	         -9.58943437	          0.00000000	
          0.78820426	         38.61124149	        400.29705639	         12.17291128	          0.16382289	          0.00000000	          0.07688329	       -166.71118771	        762.56195668	         -9.04613158	          0.74748256	          0.00000000	         -0.08436493	          0.00000000	          2.15320635	          0.00000000	          0.00000000	         -8.43833527	          0.00000000	
          0.81851981	         13.97136558	        301.90322252	         11.93899435	          0.17646975	          0.00000000	          0.07917694	       -124.21369817	        720.86375825	         -4.34621827	          0.74732697	          0.00000000	         -0.08538168	          0.00000000	          1.37193766	          0.00000000	          0.00000000	         -7.41016225	          0.00000000	
          0.84883536	          0.86971814	        245.92073095	         12.13502638	          0.18466506	          0.00000000	          0.07540618	        -91.58580336	        686.39520895	         -1.96694332	          0.74665946	          0.00000000	         -0.08632697	          0.00000000	          0.70117333	          0.00000000	          0.00000000	         -6.90348150	          0.00000000	
          0.87915091	         -3.95587165	        216.59644307	         16.77551089	          0.19096154	          0.00000000	          0.06988519	        -69.54954193	        669.83842218	         -2.22046835	          0.74591976	          0.00000000	         -0.08717922	          0.00000000	          0.25726578	          0.00000000	          0.00000000	         -6.70271698	          0.00000000	
